<svg xmlns="http://www.w3.org/2000/svg" viewBox="0 0 420 420"><defs><style>.cls-1{fill:#260035;}.cls-2{font-size:168px;fill:#fff;font-family:SimHei;letter-spacing:0.02em;}</style></defs><g id="图层_2" data-name="图层 2"><g id="图层_1-2" data-name="图层 1"><text/><rect class="cls-1" x="0.5" y="0.5" width="419" height="419" rx="32.5"/><path d="M387,1a32,32,0,0,1,32,32V387a32,32,0,0,1-32,32H33A32,32,0,0,1,1,387V33A32,32,0,0,1,33,1H387m0-1H33A33,33,0,0,0,0,33V387a33,33,0,0,0,33,33H387a33,33,0,0,0,33-33V33A33,33,0,0,0,387,0Z"/><text class="cls-2" transform="translate(39.33 166.33)">筆記<tspan x="0" y="201.6">映畫</tspan></text></g></g></svg>