<svg xmlns="http://www.w3.org/2000/svg" xmlns:xlink="http://www.w3.org/1999/xlink" viewBox="0 0 72.09 95.11"><defs><style>.cls-1{fill:url(#未命名的渐变_12);}.cls-2{fill:#fff;}</style><linearGradient id="未命名的渐变_12" y1="47.55" x2="72.09" y2="47.55" gradientUnits="userSpaceOnUse"><stop offset="0" stop-color="#cce0f4"/><stop offset="0.1" stop-color="#86c5e8"/><stop offset="0.19" stop-color="#4eafdf"/><stop offset="0.25" stop-color="#2ba1d9"/><stop offset="0.29" stop-color="#1e9cd7"/><stop offset="0.81" stop-color="#0075be"/><stop offset="0.99" stop-color="#005b97"/></linearGradient></defs><g id="图层_2" data-name="图层 2"><g id="图层_2-2" data-name="图层 2"><path class="cls-1" d="M47.15,78.11c-18.49-7.89-26.31,15.66-32,17-3.06-1,2.87-12.68-3-24C6.86,61-5.62,56.71,2.89,49.06h0C15.68,34,8.46,14.33,30.15,2.11c7.37-2.59,12-3.37,18,1,4.13,3.76,3.35,9.41,6,10s4.49-4.92,8-5c2,0,5.09,1.73,9,11,4.2,17.67-7,19-7,28,1,3.83,6.26,5.93,6.26,11.64C71.18,69,59.86,81.33,47.15,78.11Z"/><path class="cls-2" d="M26.32,24.61c.38-.5.75-.5,1.13,0v.94a9.46,9.46,0,0,1,2.7-.44,9.57,9.57,0,0,1,3.11.44,1.6,1.6,0,0,1,1.64.58,1.45,1.45,0,0,1,.23,1.11v1.31h3.19c.5.37.5.75,0,1.12H35.13V30.8c.13,1.37-.5,2-1.87,1.87a9.76,9.76,0,0,1-5.81,0v1.5c1.19,0,2.43-.06,3.7-.06s2.44,0,3.61.06a.58.58,0,0,1,.47.57c0,.18-.16.37-.47.56a33.11,33.11,0,0,0-3.61-.19,34.57,34.57,0,0,0-3.7.19v1.87a5.38,5.38,0,0,1,3.7-1.06c1.11.14,1.6.67,3,1a8,8,0,0,0,3.23.06.58.58,0,0,1,.47.57c0,.18-.15.37-.47.56-1.62-.13-3.37-.2-5.23-.19-1.66,0-3.24.08-4.7.19a2.79,2.79,0,0,0-.3,1.81,2.37,2.37,0,0,0,.3.81.62.62,0,0,1-.57.38.78.78,0,0,1-.56-.38V38.3a20.45,20.45,0,0,1-4.17.81s-3.21.27-4.64-.81c-.12-.09-.38-.29-.38-.56a.78.78,0,0,1,.38-.57,4.68,4.68,0,0,0,2.64.94c1.43,0,2.13-.79,4-1a7.66,7.66,0,0,1,2.17.06V35.3a8.62,8.62,0,0,1-4.17.81A8.8,8.8,0,0,1,19,35.3a.62.62,0,0,1-.38-.56.78.78,0,0,1,.38-.57,7.47,7.47,0,0,0,7.31,0v-1.5a15.14,15.14,0,0,1-7.31,0,.6.6,0,0,1-.38-.56c0-.19.13-.37.38-.56a14.87,14.87,0,0,1,4.14-.44,15.41,15.41,0,0,1,3.17.44V29.67a24.27,24.27,0,0,1-4.17.44,25.09,25.09,0,0,1-5.2-.44.6.6,0,0,1-.38-.56c0-.19.13-.37.38-.56a20,20,0,0,0,5.2.56,19.77,19.77,0,0,0,4.17-.56V26.67a15.11,15.11,0,0,1-7.31,0,.6.6,0,0,1-.38-.56c0-.19.13-.37.38-.56a12,12,0,0,0,7.31,0ZM19.57,19c.63-.38.94-.19.94.56l-.56.94a12,12,0,0,1,6,0,.6.6,0,0,1,.37.56.74.74,0,0,1-.37.56,2.52,2.52,0,0,0-1.8-.5,2.38,2.38,0,0,0-1.2.5,1.44,1.44,0,0,1,1.2,1.5,1.21,1.21,0,0,1-.64.75c-.38.63-.75.63-1.13,0-.08-.24-.16-.49-.23-.75a14.17,14.17,0,0,1-.33-1.5,1.87,1.87,0,0,1-1.67.5,1.62,1.62,0,0,1-.77-.5,8.73,8.73,0,0,1-.61,1.08,9.68,9.68,0,0,1-.7,1c-.87.38-1.19.13-.94-.75.3-.58.64-1.18,1-1.81C18.62,20.33,19.1,19.62,19.57,19Zm8.81.18c.63-.37.94-.25.94.38l-.37.94h7.68c.5.37.5.75,0,1.12a3.51,3.51,0,0,0-1.48-.5,3.76,3.76,0,0,0-2.27.5q.15.72.27,1.5c0,.25.08.5.11.75-.38.63-.75.63-1.13,0a1.32,1.32,0,0,0,0-.75,1.69,1.69,0,0,0-1-1,2.56,2.56,0,0,0-2,0,2.16,2.16,0,0,0-1.38.44,2.26,2.26,0,0,0-.7.94c-.75.25-1.06.06-.94-.57A20.81,20.81,0,0,0,28.38,19.17Zm4.5,7.5a6.89,6.89,0,0,0-2.73-.56,6.81,6.81,0,0,0-2.7.56v1.88a12.25,12.25,0,0,1,6.56,0v-.94C34.13,27,33.76,26.67,32.88,26.67Zm1.13,3H27.45v1.88a9.18,9.18,0,0,1,5.62,0,.72.72,0,0,0,.8-.14.92.92,0,0,0,.14-.8Z"/><path class="cls-2" d="M41.13,22.55a18.07,18.07,0,0,0,4,.56,17.68,17.68,0,0,0,4.8-.56.57.57,0,0,1,.46.56c0,.19-.15.38-.46.56a22.5,22.5,0,0,1-4.8.44,22.22,22.22,0,0,1-4-.44C40.91,23.58,40.76,23.36,41.13,22.55Zm.75,3.37c1,.11,2.1.18,3.27.19a36.11,36.11,0,0,0,4.05-.19.63.63,0,0,1,.37.57.76.76,0,0,1-.37.56q-2,.06-4.05.06-1.66,0-3.27-.06C41.66,27,41.51,26.73,41.88,25.92Zm0,3.38a33.37,33.37,0,0,1,4.27-.19c1.09,0,2.11.09,3.05.19a.61.61,0,0,1,.37.56.73.73,0,0,1-.37.56,20.22,20.22,0,0,0-3.05-.31,20.75,20.75,0,0,0-4.27.31C41.66,30.33,41.51,30.11,41.88,29.3Zm1.5,3.37h3.75q2.25,0,2.07,2.07v4.31c.12,1.37-.63,2-2.25,1.87H44a2,2,0,0,1-2.44-2.25V34.92C41.51,33.42,42.13,32.67,43.38,32.67Zm2.77,1.44h-1a1.43,1.43,0,1,0-2,2,1,1,0,0,1,0,2,1.18,1.18,0,0,0,1,2h2a1.56,1.56,0,0,0,2-2,1.77,1.77,0,0,1-1-2,1.69,1.69,0,0,1,1-1,1.16,1.16,0,0,0,0-1A1.46,1.46,0,0,0,46.15,34.11ZM44.88,19.17a2.4,2.4,0,0,1,2.27.94,2.22,2.22,0,0,1,.36,1.31q.18.95-.75.75c-1-.87-1.81-1.56-2.44-2.06C44,19.36,44.13,19.05,44.88,19.17Zm6.19.75H59c1.5,0,2.18.57,2.06,1.69v5.81c.12,1.38-.56,2-2.06,1.88l-3.8-.19a2,2,0,0,0-2,1,2.17,2.17,0,0,0,0,2c.47.25,1,.62,1,1s-.86.47-1,1,.87,1.07,1,2c.06.43-.06,1.08-1,2-.62.65-.76,1.32-.53,1.58s.59.13.7.11a3.57,3.57,0,0,0,2.83.31c.84-.32,1.18-1,2-1a2.31,2.31,0,0,1,1.55.69,4.46,4.46,0,0,0,.45-1.69c.05-.89-.21-1.32,0-2A2.53,2.53,0,0,1,61,34.92c.37-.5.75-.5,1.12,0a18.06,18.06,0,0,0-.56,4.6c0,.47,0,1.31-.42,1.59s-.94,0-1.27-.19a4.16,4.16,0,0,1-.73.19,4.76,4.76,0,0,1-.94,0c-.47,0-.58,0-1.06,0-.23,0-.57,0-1,0-2,.63-3.81.38-4.52-.61a4.29,4.29,0,0,1-.56-1.64,5.88,5.88,0,0,1,.08-1.75,18.21,18.21,0,0,0,0-4c-.07-1.12,0-1.65-.08-2.69a2.36,2.36,0,0,1,.61-1.78,2.09,2.09,0,0,1,1.45-.47c.88,0,1.09,0,2.44,0,.55,0,.72,0,1.06-.05h1.52c.84.27,1.48.19,1.59-.08s-.19-.6-.59-.92a2.62,2.62,0,0,1-1-2,2.59,2.59,0,0,1,1-2c.83-1.11.8-1.52.71-1.69v0c0-.08-.24-.35-1.09-.35-1.63,0-3.14,1-4.61,1.06a4.75,4.75,0,0,1-3.08-1.06c-.65-.33-1-.73-.92-.94S50.62,19.87,51.07,19.92Z"/><path class="cls-2" d="M18.82,49.47h2.25c1.38,0,2,.63,1.88,1.88.1,1.85.18,3.77.2,5.76,0,3.11,0,6.07-.2,8.86a1.51,1.51,0,0,1-.38,1.5,1.82,1.82,0,0,1-1.5.38H18.82C17.57,68,17,67.35,17,66a5.58,5.58,0,0,0,.2-3.86c-.35-1-.8-1.1-1-2-.33-1.47.55-2.4,1-4a8.29,8.29,0,0,0-.2-4.76C16.93,51.27,16.84,50.52,18.82,49.47ZM20.7,50.6H19.2a1,1,0,0,0-1.13,1.12,1.84,1.84,0,0,0,.08,1.39c.33.57,1,.63,1,1s-.62.47-1,1a2.46,2.46,0,0,0-.08,2.24,7,7,0,0,1,2.08-.24,7.25,7.25,0,0,1,1.67.24,2,2,0,0,0,.33-1.24c-.12-1-1.15-1.39-1-2s.78-.44,1-1a1.64,1.64,0,0,0-.33-1.39S21.93,51.29,20.7,50.6Zm1.12,7.87a3,3,0,0,1-3.75,0,6.12,6.12,0,0,1,1.08,2.64,6.41,6.41,0,0,1-1.08,4.49c0,.83.29,1,.35,1,.38.15,1.07-.43,1.73-1.49l.55,1.61c.87.13,1.25-.25,1.12-1.12a7.76,7.76,0,0,0,.33-2.49c0-1-.24-1.42-.33-2.63A14.66,14.66,0,0,1,21.82,58.47Zm9.56-10.12V51H34c1.5.13,2.19.88,2.06,2.25v7.5h2.06c.63.38.63.75,0,1.13a17.68,17.68,0,0,1-2,.26,17.36,17.36,0,0,1-4.39-.26,25.06,25.06,0,0,1,1.39,2.26c.59,1.08.73,1.54,1,2,.5.84,1.54,1.86,4,2.49.38.62.25,1-.37,1.12a7.61,7.61,0,0,1-3.61-1.61,8.46,8.46,0,0,1-1-1,9.53,9.53,0,0,1-1.95-4,4.69,4.69,0,0,1-1,2.19c-.84,1-1.79,1.13-3,1.76a10.93,10.93,0,0,0-3.27,2.61.66.66,0,0,1-.54-.32.87.87,0,0,1,.17-.8c2.15-2.37,3.65-3.19,4.64-3.49a2.82,2.82,0,0,0,1.22-.67,3.53,3.53,0,0,0,.89-2.59,20.32,20.32,0,0,1-4.11.26,20.72,20.72,0,0,1-2.45-.26.62.62,0,0,1-.38-.56.78.78,0,0,1,.38-.57h1.87V53A1.83,1.83,0,0,1,27.63,51h2.63V48.35C30.63,47.85,31,47.85,31.38,48.35ZM30.26,52.1H28a.76.76,0,0,0-1,.33.72.72,0,0,0,.13.68,1.43,1.43,0,0,1,0,1c-.27.6-1,.6-1,1s1,1.12,1,1.49a1.72,1.72,0,0,1,0,.49v0c-.21,1.1-.92,1.18-1,2a2.49,2.49,0,0,0,1,2,1.67,1.67,0,0,1,1-1,1.58,1.58,0,0,1,1,0,1.67,1.67,0,0,1,1,1,4.06,4.06,0,0,1,0-3c.41-.91,1.16-1.36,1-2s-.63-.51-1-1S29.6,53.81,30.26,52.1Zm3.37,0c-.78.8-1.27,1.14-1.48,1s-.15-.43,0-1a2.82,2.82,0,0,0-1,2c0,1.33,1.34,2.09,1,3-.19.51-.66.45-1,1a2.93,2.93,0,0,0,.23,2.61,2.9,2.9,0,0,1,1.77-.61,3,3,0,0,1,1.8.61,8,8,0,0,1-.8-4.61c.05-.33.12-.66.12-.66A7.33,7.33,0,0,1,35,53.6a2.1,2.1,0,0,1-.8-.49A2.06,2.06,0,0,1,33.63,52.1Z"/><path class="cls-2" d="M41.13,68.79c.8.16,1.49.25,2,.32a5.28,5.28,0,0,0,2,0,5.69,5.69,0,0,0,.86-.32,5,5,0,0,1,2.92,0,22.92,22.92,0,0,0,4.22.32c1.68,0,2-.2,4.14-.32a34.22,34.22,0,0,1,4.09,0,.57.57,0,0,1,.47.56c0,.19-.15.37-.47.56a27.22,27.22,0,0,0-6.4,0c-.46.06-1,.15-1.83.2a21.82,21.82,0,0,1-4.53-.2,32.06,32.06,0,0,0-7.49,0C40.91,69.82,40.76,69.59,41.13,68.79ZM50.7,48.35c.37-.5.75-.5,1.12,0v1.31a6.87,6.87,0,0,1,5.44,0,1.78,1.78,0,0,1,1.79.63,1.75,1.75,0,0,1,.27,1.25v.56H62c.62.37.62.75,0,1.12H59.32v.57c.13,1.37-.56,2-2.06,1.87-1.12-.74-1.74-.74-2.11-.55-.54.28-.62,1-1,1s-.46-.83-1-1-1,.23-1.33.55v1.13H59.7c.62.37.62.75,0,1.12H51.82V59l.33.07a4.18,4.18,0,0,0,1,0c.33,0,.67,0,1,0h2A6.64,6.64,0,0,1,57.76,59l.39.07a4.78,4.78,0,0,0,1,0c.49,0,.44,0,1,0,.25,0,.61,0,1.05-.07a.56.56,0,0,1,.46.56c0,.19-.15.37-.46.56-.82,0-1.52,0-2.05,0h-13c-1.14.21-1.42,1.13-2,1s-.41-.71-1-1a1.82,1.82,0,0,0-1.45,0,.61.61,0,0,1-.38-.56A.74.74,0,0,1,41.7,59c1.47.05,2.64.07,3.45.07h4L50.7,59V57.91a15.3,15.3,0,0,1-1.55.2c-.31,0-.71,0-1.51,0H43.15a.62.62,0,0,1-.42-.76.53.53,0,0,1,.42-.24c.75,0,1.36,0,1.79,0l1.21,0h2a12.82,12.82,0,0,0,2.55-.32V55.66a9.53,9.53,0,0,1-2.55.45c-.58,0-.88,0-2,0a8.26,8.26,0,0,1-1,0,4.85,4.85,0,0,1-1.58-.45.58.58,0,0,1-.47-.56c0-.19.16-.38.47-.56a5.34,5.34,0,0,0,3.58.57,5.26,5.26,0,0,0,2,0,5.4,5.4,0,0,0,1.55-.57V53.22c-.35,0-.89,0-1.55-.11-1.28-.12-1.6-.21-2,0-.63.33-.53.91-1,1s-.83-.71-2-1a1.49,1.49,0,0,0-1,0c-.59.26-.64,1-1,1-.19,0-.46-.15-.83-.89a.62.62,0,0,1-.47-.56c0-.36.42-.54.47-.56a1.37,1.37,0,0,1,.83,0c.6.07,1.13-.93,2-1s.82.68,2,1a6.28,6.28,0,0,0,2,0c.59,0,1.47,0,2.55,0V50.79a9.26,9.26,0,0,0-4.55-.68,8.7,8.7,0,0,0-2.58.68.58.58,0,0,1-.47-.57c0-.18.16-.37.47-.56a11.24,11.24,0,0,1,2.58-.55,11.12,11.12,0,0,1,4.55.55ZM45.63,61.29q1.23-.12,2.52-.18a61,61,0,0,1,8.55.18,1.93,1.93,0,0,1,1.93.68A1.91,1.91,0,0,1,59,63.35v2.44c.12,1.37-.63,2-2.25,1.87H45.63c-1.37.12-2.06-.44-2.06-1.69V63.35A1.82,1.82,0,0,1,45.63,61.29Zm5.07,1.12a10.05,10.05,0,0,0-4.88,0,1,1,0,0,0-.93.33.89.89,0,0,0-.19.61v.56a6.05,6.05,0,0,1,3.45-.8,5.94,5.94,0,0,1,2.55.8Zm-.55,2.7a2.29,2.29,0,0,0-1-1,2.17,2.17,0,0,0-2,0c-.53.31-.48.75-1,1A1.86,1.86,0,0,1,44.7,65a5.12,5.12,0,0,0,0,.56c0,.75.37,1.06,1.12.94a5.62,5.62,0,0,1,1.33-.43,6.12,6.12,0,0,1,3.55.43C50.51,66.06,50.33,65.58,50.15,65.11ZM58.2,51.72c.12-.62-.25-.93-1.13-.93a11,11,0,0,1-2.92.32,11.48,11.48,0,0,1-2.33-.32.66.66,0,0,1,.33.32.87.87,0,0,1-.33,1H58.2Zm0,1.5a8.73,8.73,0,0,0-2.05-.11,9.56,9.56,0,0,1-2,.11,9.26,9.26,0,0,0-1-.11,5.83,5.83,0,0,0-1.33.11.85.85,0,0,1,.33.89.83.83,0,0,1-.33.43,5.05,5.05,0,0,1,1.33-.43,6.08,6.08,0,0,1,2,0,9.37,9.37,0,0,1,1.92.43.87.87,0,0,0,1-.2.9.9,0,0,0,.13-.74Zm-1.5,9.19a2,2,0,0,1-1.55.7c-.8-.08-1.09-.88-2-1a2.13,2.13,0,0,0-1.33.3v1.5a22.31,22.31,0,0,0,3.33.2,23.12,23.12,0,0,0,2.67-.2v-.37C58,62.79,57.57,62.41,56.7,62.41ZM57.82,65c-.14,0-.38,0-.67.07-.63,0-.89,0-2,0h-2c-.31,0-.77,0-1.33-.07s-.64,0-.67.07c-.17.22.09.79.67,1.43a6.47,6.47,0,0,1,3.33-.43,6,6,0,0,1,1.55.43.79.79,0,0,0,1.12-.94Z"/></g></g></svg>