<svg xmlns="http://www.w3.org/2000/svg" viewBox="0 0 148 165"><defs><style>.cls-1,.cls-2{fill:none;stroke:#b24747;stroke-miterlimit:10;}.cls-1{stroke-width:5px;}.cls-2{stroke-width:4px;}.cls-3{font-size:24px;fill:#b24747;font-family:ArialRoundedMTBold, Arial Rounded MT Bold;}</style></defs><g id="图层_2" data-name="图层 2"><g id="图层_1-2" data-name="图层 1"><path class="cls-1" d="M29.65,15.5h90.7a9.15,9.15,0,0,1,9.15,9.15V107.5a0,0,0,0,1,0,0H20.5a0,0,0,0,1,0,0V24.65A9.15,9.15,0,0,1,29.65,15.5Z"/><ellipse class="cls-2" cx="74.89" cy="61.06" rx="34.61" ry="34.44"/><circle class="cls-1" cx="74.5" cy="61.5" r="21"/><path class="cls-1" d="M45.67,2.5h56.67a5.17,5.17,0,0,1,5.17,5.17V15.5a0,0,0,0,1,0,0h-67a0,0,0,0,1,0,0V7.67A5.17,5.17,0,0,1,45.67,2.5Z"/><rect class="cls-1" x="2.5" y="107.5" width="143" height="18" rx="3.91"/><path class="cls-1" d="M74.73,127.5h.54a1.23,1.23,0,0,1,1.23,1.23V162.5a0,0,0,0,1,0,0h-3a0,0,0,0,1,0,0V128.73a1.23,1.23,0,0,1,1.23-1.23Z" transform="translate(150 290) rotate(-180)"/><path class="cls-1" d="M44.12,115.28h.54a1.23,1.23,0,0,1,1.23,1.23v52.56a3,3,0,0,1-3,3h0a0,0,0,0,1,0,0V116.51A1.23,1.23,0,0,1,44.12,115.28Z" transform="matrix(-0.61, -0.79, 0.79, -0.61, -41.99, 266.77)"/><text class="cls-3" transform="translate(67.22 71.11)">T</text><path class="cls-1" d="M104,115.36h0a3,3,0,0,1,3,3v52.56a1.23,1.23,0,0,1-1.23,1.23h-.54a1.23,1.23,0,0,1-1.23-1.23V115.36a0,0,0,0,1,0,0Z" transform="translate(-72.75 139.1) rotate(-52.23)"/></g></g></svg>